<svg width="184" height="107" viewBox="0 0 184 107" fill="none" xmlns="http://www.w3.org/2000/svg">
<path d="M16.3731 45.9C13.5831 45.9 10.8381 45.105 8.13811 43.515L4.31311 45.45H3.32311V33.885H4.31311L8.18311 42.255C10.6731 44.025 13.5231 44.91 16.7331 44.91C19.3731 44.91 21.5481 44.22 23.2581 42.84C24.9981 41.43 25.8681 39.465 25.8681 36.945C25.8681 35.115 25.3131 33.675 24.2031 32.625C23.0931 31.545 21.2931 30.69 18.8031 30.06L11.3331 28.125C8.72311 27.435 6.75811 26.265 5.43811 24.615C4.11811 22.935 3.45811 20.955 3.45811 18.675C3.45811 16.605 3.86311 14.775 4.67311 13.185C5.51311 11.565 6.72811 10.32 8.31811 9.45C9.90811 8.55 11.7981 8.1 13.9881 8.1C16.7181 8.1 19.1631 8.565 21.3231 9.495L24.6081 8.1H25.5981V17.28H24.6081L21.3681 10.71C19.1181 9.63 16.6731 9.09 14.0331 9.09C11.4231 9.09 9.36811 9.765 7.86811 11.115C6.36811 12.435 5.61811 14.19 5.61811 16.38C5.61811 18 6.14311 19.275 7.19311 20.205C8.27311 21.135 9.84811 21.87 11.9181 22.41L19.9731 24.525C22.5831 25.185 24.5181 26.325 25.7781 27.945C27.0681 29.535 27.7131 31.965 27.7131 35.235C27.7131 38.565 26.6781 41.175 24.6081 43.065C22.5681 44.955 19.8231 45.9 16.3731 45.9ZM36.3088 16.47C35.4688 16.47 34.7488 16.185 34.1488 15.615C33.5488 15.015 33.2488 14.295 33.2488 13.455C33.2488 12.615 33.5338 11.91 34.1038 11.34C34.7038 10.77 35.4388 10.485 36.3088 10.485C37.1188 10.485 37.8088 10.77 38.3788 11.34C38.9488 11.91 39.2338 12.615 39.2338 13.455C39.2338 14.295 38.9488 15.015 38.3788 15.615C37.8088 16.185 37.1188 16.47 36.3088 16.47ZM31.5388 45V44.1L34.6888 43.65V23.085L31.5388 22.635V21.735H39.1888V43.65L42.3388 44.1V45H31.5388ZM44.5016 44.1L47.6516 43.65V23.04L44.5016 22.59V21.69H52.1516V25.83C53.2316 24.42 54.4466 23.31 55.7966 22.5C57.1766 21.69 58.6616 21.285 60.2516 21.285C62.0816 21.285 63.5666 21.69 64.7066 22.5C65.8766 23.28 66.6116 24.465 66.9116 26.055C67.9916 24.585 69.2216 23.43 70.6016 22.59C71.9816 21.72 73.4966 21.285 75.1466 21.285C77.2766 21.285 78.9266 21.825 80.0966 22.905C81.2966 23.955 81.8966 25.56 81.8966 27.72V43.65L85.0466 44.1V45H74.6966V44.1L77.3966 43.65V27.81C77.3966 26.22 77.1116 25.005 76.5416 24.165C75.9716 23.325 75.0416 22.905 73.7516 22.905C72.5216 22.905 71.3216 23.325 70.1516 24.165C69.0116 25.005 67.9766 26.085 67.0466 27.405V43.65L69.7466 44.1V45H59.8016V44.1L62.5016 43.65V27.81C62.5016 26.22 62.2166 25.005 61.6466 24.165C61.0766 23.325 60.1466 22.905 58.8566 22.905C57.6266 22.905 56.4266 23.325 55.2566 24.165C54.1166 25.005 53.0816 26.085 52.1516 27.405V43.65L54.8516 44.1V45H44.5016V44.1ZM99.4596 45.45C97.2996 45.45 95.3346 44.955 93.5646 43.965C91.7946 42.945 90.3846 41.52 89.3346 39.69C88.3146 37.83 87.8046 35.715 87.8046 33.345C87.8046 30.855 88.3446 28.695 89.4246 26.865C90.5346 25.035 91.9746 23.655 93.7446 22.725C95.5146 21.765 97.4196 21.285 99.4596 21.285C101.17 21.285 102.73 21.585 104.14 22.185C105.55 22.755 106.66 23.565 107.47 24.615C108.31 25.665 108.73 26.85 108.73 28.17C108.73 29.16 108.475 29.925 107.965 30.465C107.455 30.975 106.78 31.23 105.94 31.23C105.13 31.23 104.455 30.96 103.915 30.42C103.375 29.88 103.105 29.205 103.105 28.395C103.555 28.095 103.87 27.765 104.05 27.405C104.23 27.045 104.32 26.595 104.32 26.055C104.32 24.945 103.87 24.045 102.97 23.355C102.1 22.635 100.93 22.275 99.4596 22.275C97.2996 22.275 95.6346 23.055 94.4646 24.615C93.3246 26.145 92.7546 28.305 92.7546 31.095V35.595C92.7546 38.265 93.3096 40.41 94.4196 42.03C95.5596 43.65 97.2396 44.46 99.4596 44.46C101.5 44.46 103.27 43.89 104.77 42.75C106.3 41.58 107.245 40.05 107.605 38.16H108.64C108.22 40.38 107.17 42.15 105.49 43.47C103.84 44.79 101.83 45.45 99.4596 45.45ZM118.46 45.45C116.54 45.45 114.965 44.955 113.735 43.965C112.505 42.945 111.89 41.445 111.89 39.465C111.89 36.645 113.075 34.65 115.445 33.48C117.815 32.28 120.56 31.68 123.68 31.68H126.695V28.215C126.695 26.655 126.515 25.455 126.155 24.615C125.825 23.745 125.3 23.145 124.58 22.815C123.86 22.455 122.885 22.275 121.655 22.275C120.245 22.275 119.195 22.56 118.505 23.13C117.815 23.67 117.47 24.405 117.47 25.335C117.47 26.205 117.89 26.775 118.73 27.045C118.73 27.795 118.445 28.455 117.875 29.025C117.305 29.595 116.63 29.88 115.85 29.88C115.01 29.88 114.335 29.655 113.825 29.205C113.315 28.725 113.06 28.005 113.06 27.045C113.06 25.305 113.93 23.91 115.67 22.86C117.41 21.81 119.585 21.285 122.195 21.285C128.195 21.285 131.195 23.895 131.195 29.115V41.985C131.195 42.645 131.33 43.155 131.6 43.515C131.9 43.845 132.32 44.01 132.86 44.01C133.37 44.01 133.775 43.845 134.075 43.515C134.375 43.155 134.525 42.675 134.525 42.075H135.47C135.47 43.125 135.125 43.95 134.435 44.55C133.775 45.15 132.845 45.45 131.645 45.45C130.265 45.45 129.095 45.06 128.135 44.28C127.205 43.47 126.725 42.225 126.695 40.545C125.975 42.075 124.865 43.275 123.365 44.145C121.895 45.015 120.26 45.45 118.46 45.45ZM120.935 43.47C121.745 43.47 122.57 43.23 123.41 42.75C124.28 42.27 125.015 41.58 125.615 40.68C126.215 39.75 126.575 38.64 126.695 37.35V32.67H123.68C121.22 32.67 119.375 33.225 118.145 34.335C116.945 35.415 116.345 36.945 116.345 38.925C116.345 40.575 116.735 41.745 117.515 42.435C118.295 43.125 119.435 43.47 120.935 43.47ZM136.567 44.1L139.717 43.65V23.04L136.567 22.59V21.69H144.217V25.155C146.107 22.575 148.237 21.285 150.607 21.285C151.747 21.285 152.752 21.585 153.622 22.185C154.492 22.755 154.927 23.58 154.927 24.66C154.927 25.44 154.672 26.1 154.162 26.64C153.652 27.15 152.977 27.405 152.137 27.405C151.177 27.405 150.397 27.03 149.797 26.28C150.127 25.86 150.292 25.41 150.292 24.93C150.292 24.42 150.112 24.015 149.752 23.715C149.422 23.385 148.972 23.22 148.402 23.22C147.772 23.22 147.127 23.52 146.467 24.12C145.807 24.69 145.057 25.59 144.217 26.82V43.65L147.817 44.1V45H136.567V44.1ZM167.51 45.45C165.38 45.45 163.505 44.955 161.885 43.965C160.265 42.945 159.005 41.535 158.105 39.735C157.205 37.905 156.755 35.775 156.755 33.345C156.755 30.915 157.205 28.8 158.105 27C159.005 25.17 160.265 23.76 161.885 22.77C163.505 21.78 165.38 21.285 167.51 21.285C169.25 21.285 170.765 21.75 172.055 22.68C173.345 23.58 174.365 24.825 175.115 26.415V10.35L171.965 9.9V9H179.615V43.65L182.765 44.1V45H175.115V40.32C174.365 41.91 173.345 43.17 172.055 44.1C170.765 45 169.25 45.45 167.51 45.45ZM167.96 44.325C169.28 44.325 170.465 43.95 171.515 43.2C172.595 42.42 173.45 41.4 174.08 40.14C174.74 38.85 175.085 37.455 175.115 35.955V30.78C175.085 29.28 174.74 27.9 174.08 26.64C173.45 25.35 172.595 24.33 171.515 23.58C170.465 22.8 169.28 22.41 167.96 22.41C163.79 22.41 161.705 25.305 161.705 31.095V35.595C161.705 41.415 163.79 44.325 167.96 44.325Z" fill="black"/>
<path d="M68.4254 88.5863C68.1584 88.5588 67.8039 88.5966 67.3617 88.6995C66.9476 88.7918 66.5791 88.8349 66.256 88.8287C65.5887 88.7601 65.0174 88.4789 64.5422 87.9849C64.095 87.4804 63.723 86.8353 63.4261 86.0495C63.0125 84.955 62.7144 83.6566 62.5316 82.1542C62.3768 80.6413 62.301 79.0825 62.304 77.4778C62.3352 75.8626 62.3981 74.3315 62.4928 72.8846C62.605 71.3991 62.7265 70.1506 62.8575 69.139C62.9778 68.0994 63.0691 67.4074 63.1315 67.0632C63.3572 66.0479 63.7625 65.2533 64.3475 64.6795C64.9499 64.0671 65.6861 63.5965 66.556 63.2678C68.4363 62.5574 69.2997 62.4236 69.1463 62.8664C68.8115 63.7626 68.5456 64.8412 68.3485 66.1022C68.1409 67.3352 67.972 68.5856 67.8417 69.8535C67.7395 71.1107 67.651 72.2346 67.5762 73.2249C67.5176 73.664 67.4783 74.1118 67.4584 74.5683C67.4384 75.0248 67.4185 75.4813 67.3986 75.9378C67.5146 75.9902 67.7936 75.9649 68.2358 75.862C68.6954 75.7204 69.0375 75.6072 69.262 75.5224C69.9075 75.2785 70.4905 74.6573 71.0112 73.6588C71.56 72.6497 71.9784 71.4654 72.2665 70.1058C72.572 68.7076 72.716 67.3063 72.6985 65.9018C72.709 64.4868 72.5128 63.246 72.1099 62.1796C71.707 61.1132 71.0836 60.3545 70.2398 59.9037C69.3854 59.4248 68.2566 59.4504 66.8534 59.9805C65.9273 60.3305 64.9192 60.8877 63.8291 61.6524C62.767 62.4064 61.7773 63.3095 60.86 64.3616C59.9427 65.4138 59.2433 66.576 58.7619 67.8482C58.2699 69.0924 58.1415 70.4077 58.3767 71.7941C58.2538 71.8084 57.9467 71.8443 57.4552 71.9017C56.9532 71.931 56.4387 71.8849 55.9117 71.7633C55.4022 71.6031 55.0573 71.2844 54.877 70.8073C54.3363 69.3761 54.5064 67.9167 55.3876 66.4293C56.2687 64.9418 57.7031 63.518 59.6906 62.1577C61.6675 60.7694 64.031 59.5557 66.7813 58.5165C69.6157 57.4456 71.9132 57.2029 73.6738 57.7884C75.4238 58.3459 76.6116 59.4525 77.2372 61.1082C77.7461 62.4553 77.8694 64.0122 77.6069 65.779C77.3725 67.5352 76.7904 69.2625 75.8606 70.9607C74.9589 72.6483 73.7528 74.0822 72.2424 75.2622C71.92 75.5123 71.4292 75.826 70.77 76.2033C70.1389 76.5701 69.5287 76.8648 68.9393 77.0874C68.6026 77.2147 68.2833 77.3032 67.9814 77.3531C67.7076 77.3924 67.4934 77.3772 67.3388 77.3073C67.2702 79.4178 67.2856 81.3682 67.3849 83.1587C67.4841 84.9492 67.6981 86.2794 68.0268 87.1494C68.1964 87.5984 68.4079 87.9034 68.6611 88.0643C68.7384 88.0992 68.7983 88.1728 68.8407 88.285C68.9149 88.4815 68.7765 88.5819 68.4254 88.5863ZM89.4705 79.8651C88.0674 80.3952 86.9227 80.3788 86.0364 79.8156C85.1677 79.2139 84.5371 78.3938 84.1448 77.3554C83.7949 76.4293 83.6043 75.3308 83.5731 74.0598C83.5312 72.7607 83.5736 71.4299 83.7001 70.0672C83.8441 68.6659 84.0233 67.3153 84.2378 66.0156C84.4523 64.716 84.625 63.5603 84.7559 62.5488C84.4965 62.7109 84.223 62.8784 83.9355 63.0512C83.6655 63.1852 83.3901 63.3053 83.1095 63.4113C82.464 63.6552 81.8657 63.7691 81.3143 63.7529C81.3287 63.8757 81.329 64.0039 81.3153 64.1374C81.3016 64.2708 81.2913 64.3709 81.2844 64.4376C81.282 66.2986 81.2216 68.1334 81.1032 69.942C80.9848 71.7506 80.8305 73.252 80.6404 74.4463C80.5194 75.2296 80.3186 75.6743 80.038 75.7803C79.8135 75.8651 79.6376 75.7392 79.5104 75.4024C79.4255 75.1779 79.4021 74.9462 79.4402 74.7073C79.5985 73.4289 79.735 71.8379 79.8497 69.9345C79.9924 68.0206 80.0544 66.105 80.0356 64.1879C80.0424 64.1212 80.0334 64.0124 80.0084 63.8615C80.0009 63.6719 79.99 63.5156 79.9757 63.3928C79.4412 63.0816 79.0361 62.5612 78.7604 61.8315C78.5802 61.3545 78.5315 60.8437 78.6144 60.2992C78.6867 59.7267 78.9895 59.3397 79.5227 59.1383C79.8314 59.0216 80.1545 59.0279 80.4919 59.1569C80.8573 59.2754 81.1302 59.5732 81.3104 60.0503C81.5225 60.6116 81.5593 61.3032 81.4209 62.1252C81.5513 62.3004 81.792 62.3858 82.1431 62.3814C82.4836 62.349 82.8363 62.2638 83.2011 62.126C83.594 61.9776 83.9517 61.7783 84.2741 61.5282C84.6246 61.2675 84.8275 60.9984 84.883 60.7208C85.0084 60.2887 85.3657 59.9612 85.955 59.7386C86.4602 59.5477 87.0745 59.4759 87.7979 59.5233C88.1983 59.5644 88.5744 59.711 88.9261 59.9629C89.2673 60.1868 89.528 60.5373 89.7082 61.0144C90.0263 61.8563 90.0644 63.0605 89.8225 64.6271C89.5881 66.3834 89.368 68.2624 89.1623 70.2643C88.9847 72.2557 88.9539 73.9991 89.07 75.4946C89.0955 75.9018 89.172 76.2738 89.2992 76.6106C89.5219 77.1999 89.8156 77.4257 90.1804 77.2878C90.5733 77.1394 90.9129 76.7224 91.1991 76.037C91.5134 75.341 91.7765 74.5521 91.9885 73.6703C92.2666 72.5389 92.4674 71.3727 92.5908 70.1716C92.7423 68.9598 92.8421 68.1204 92.8901 67.6533C92.9106 67.4531 93.0051 67.3212 93.1735 67.2575C93.3419 67.1939 93.5333 67.2338 93.7479 67.3773C93.9799 67.482 94.0822 67.6679 94.0547 67.9348C93.9762 68.8303 93.8422 70.0034 93.6527 71.454C93.4525 72.8766 93.1417 74.2608 92.7202 75.6066C92.4171 76.587 92.0102 77.4623 91.4995 78.2326C90.9888 79.0028 90.3125 79.547 89.4705 79.8651ZM101.134 75.4101C99.3381 76.0887 97.8236 76.3242 96.5906 76.1166C95.3577 75.909 94.4231 74.9632 93.7869 73.2794C93.3415 72.1007 93.0574 70.797 92.9345 69.3683C92.829 67.9008 92.8938 66.4172 93.1288 64.9173C93.3639 63.4174 93.7676 61.982 94.3401 60.6112C94.9125 59.2404 95.6627 58.043 96.5907 57.0189C97.508 55.9668 98.6121 55.1968 99.9031 54.7091C100.745 54.391 101.571 54.1589 102.382 54.013C103.193 53.867 103.932 53.9565 104.6 54.2814C105.257 54.5782 105.782 55.2458 106.175 56.2841C106.588 57.3786 106.829 58.9072 106.897 60.8698C106.965 62.8324 106.807 64.8324 106.422 66.8699C106.451 67.1156 106.507 67.3507 106.592 67.5753C106.709 67.884 106.882 68.1714 107.111 68.4377C107.368 68.6934 107.664 68.7576 108.001 68.6304C108.45 68.4607 108.797 67.9771 109.04 67.1794C109.28 66.287 109.482 65.2489 109.644 64.0652C109.806 62.8815 109.91 61.928 109.958 61.2045C109.95 61.0149 110.045 60.883 110.241 60.8088C110.438 60.7346 110.638 60.7552 110.842 60.8705C111.074 60.9753 111.162 61.1664 111.107 61.444C111.041 61.9497 110.969 62.6504 110.891 63.546C110.801 64.4135 110.661 65.3162 110.471 66.2542C110.28 67.1922 109.989 67.9917 109.597 68.6528C109.303 69.1486 108.918 69.4866 108.441 69.6669C107.88 69.8789 107.411 69.9117 107.035 69.7652C106.648 69.5906 106.275 69.2825 105.916 68.841C105.474 70.387 104.854 71.7597 104.056 72.959C103.259 74.1583 102.285 74.9754 101.134 75.4101ZM99.8413 74.4073C100.15 74.2907 100.417 73.7247 100.643 72.7094C100.869 71.6941 101.052 70.4384 101.192 68.9422C101.322 67.418 101.432 65.8851 101.523 64.3434C101.55 64.0765 101.579 63.6007 101.609 62.9159C101.628 62.2031 101.64 61.4288 101.645 60.5931C101.64 59.7294 101.602 58.9096 101.534 58.1338C101.465 57.358 101.351 56.7596 101.192 56.3386C101.012 55.8615 100.782 55.676 100.501 55.782C100.248 55.8775 100.021 56.252 99.819 56.9056C99.6063 57.5311 99.4099 58.3269 99.2297 59.2929C99.0495 60.259 98.9046 61.2758 98.7949 62.3435C98.6852 63.4112 98.6104 64.4016 98.5705 65.3146C98.5306 66.2276 98.5138 67.2442 98.5201 68.3642C98.5264 69.4843 98.5729 70.5411 98.6597 71.5345C98.7639 72.4893 98.9167 73.2333 99.1182 73.7666C99.3196 74.2998 99.5607 74.5134 99.8413 74.4073ZM113.146 48.5992C112.612 48.8007 112.128 48.7914 111.692 48.5712C111.256 48.3511 110.937 47.9744 110.736 47.4412C110.492 46.7958 110.432 46.1288 110.557 45.4403C110.682 44.7517 110.942 44.1243 111.337 43.558C111.732 42.9918 112.197 42.6079 112.73 42.4064C113.235 42.2156 113.706 42.2302 114.142 42.4503C114.606 42.6598 114.938 43.0312 115.14 43.5644C115.373 44.1818 115.433 44.8488 115.319 45.5654C115.194 46.2539 114.934 46.8813 114.538 47.4476C114.171 48.0033 113.707 48.3872 113.146 48.5992ZM109.698 81.3624C109.502 81.4366 109.3 81.4968 109.093 81.543C108.868 81.6278 108.638 81.6986 108.403 81.7554C107.586 81.9681 106.882 81.9295 106.291 81.6395C105.711 81.3776 105.32 80.98 105.119 80.4468C104.907 79.8855 104.933 79.2341 105.198 78.4926C105.474 77.7791 105.92 77.0495 106.536 76.3035C107.152 75.5576 107.861 74.8887 108.664 74.2969L111.435 72.336C111.533 70.7276 111.538 69.1703 111.45 67.6642C111.351 66.1301 111.29 64.9504 111.267 64.1253C111.259 63.9358 111.238 63.6233 111.201 63.188C111.193 62.7421 111.159 62.226 111.098 61.6398L110.896 63.015C110.792 63.7596 110.6 64.1849 110.319 64.291C110.095 64.3758 109.919 64.2498 109.792 63.9131C109.707 63.6886 109.692 63.4375 109.748 63.16C109.782 62.8264 109.84 62.2591 109.923 61.4584C110.005 60.6576 110.083 59.762 110.158 58.7717C110.202 57.9535 110.251 57.1493 110.305 56.3591C110.349 55.5409 110.315 54.6877 110.204 53.7997C110.111 53.1292 109.995 52.6116 109.858 52.2468C109.762 51.9942 109.641 51.7996 109.493 51.6631C109.394 51.572 109.345 51.5265 109.345 51.5265C109.292 51.3862 109.402 51.2964 109.676 51.2571C111.476 50.6732 112.908 50.3888 113.972 50.4037C115.053 50.38 115.763 50.8171 116.103 51.7151C116.198 51.9677 116.262 52.2643 116.295 52.6048C116.363 53.1243 116.4 53.944 116.406 55.0641C116.44 56.1736 116.449 57.4692 116.431 58.951C116.403 60.4047 116.369 61.9252 116.327 63.5124C116.285 65.0996 116.222 66.6306 116.138 68.1056C116.659 67.3634 117.137 66.5897 117.57 65.7846C117.993 64.9514 118.339 64.0832 118.607 63.1802C118.879 62.3719 119.096 61.5041 119.259 60.5767C119.411 59.6213 119.535 58.6765 119.631 57.7422C119.658 57.4753 119.784 57.2994 120.009 57.2146C120.205 57.1404 120.391 57.1663 120.567 57.2922C120.771 57.4076 120.845 57.604 120.79 57.8816C120.681 59.2056 120.498 60.4613 120.241 61.6487C119.973 62.8081 119.641 63.8799 119.243 64.864C118.939 65.5881 118.513 66.4546 117.964 67.4637C117.405 68.4448 116.752 69.3488 116.006 70.1758L115.619 73.3526C115.294 75.2074 114.717 76.8205 113.888 78.1919C113.059 79.5634 111.662 80.6202 109.698 81.3624ZM108.288 79.9228C109.242 79.5623 109.953 78.8126 110.421 77.6738C110.861 76.5456 111.161 75.2615 111.323 73.8215C110.537 74.3747 109.8 74.9261 109.109 75.4755C108.43 76.0531 107.953 76.4896 107.68 76.7853C107.207 77.3166 106.914 77.8124 106.799 78.2727C106.684 78.733 106.685 79.1174 106.802 79.4261C107.035 80.0435 107.53 80.2091 108.288 79.9228ZM128.15 65.5877C126.101 66.3617 124.439 66.4606 123.163 65.8844C121.915 65.2976 121.004 64.2465 120.432 62.7311C119.997 61.5805 119.758 60.2275 119.716 58.6721C119.657 57.4117 119.718 56.0896 119.901 54.7057C120.073 53.2938 120.38 51.9429 120.823 50.6532C121.255 49.3354 121.851 48.1963 122.611 47.2358C123.36 46.2473 124.281 45.5463 125.376 45.1328C126.779 44.6026 128 44.3977 129.04 44.518C130.097 44.5996 130.811 45.1316 131.182 46.1138C131.458 46.8435 131.508 47.8669 131.332 49.184C131.119 50.9963 130.44 52.6799 129.296 54.2347C128.152 55.7895 126.666 56.9923 124.839 57.843C124.852 59.1527 124.955 60.1883 125.147 60.9497C125.171 61.1007 125.21 61.2463 125.263 61.3866C125.306 61.4988 125.354 61.6251 125.407 61.7655C125.757 62.6916 126.221 63.2856 126.801 63.5475C127.371 63.7813 127.964 63.7816 128.582 63.5483C129.732 63.1136 130.631 62.4372 131.279 61.5192C131.926 60.6011 132.403 59.5711 132.709 58.4292C133.043 57.2767 133.279 56.1613 133.417 55.083C133.507 54.4718 133.57 53.9186 133.607 53.4235C133.634 52.9002 133.667 52.5192 133.705 52.2803C133.76 52.0028 133.872 51.8322 134.041 51.7686C134.209 51.705 134.4 51.7449 134.615 51.8883C134.819 52.0037 134.907 52.1948 134.88 52.4617C134.791 53.3292 134.651 54.4883 134.462 55.9389C134.272 57.3895 133.945 58.7316 133.482 59.9652C132.986 61.371 132.32 62.5366 131.484 63.4621C130.664 64.349 129.553 65.0575 128.15 65.5877ZM124.925 56.4155C126.007 55.4613 126.792 54.1865 127.28 52.5912C127.796 50.9853 127.941 49.375 127.716 47.7604C127.691 47.6095 127.657 47.4779 127.615 47.3656C127.6 47.2428 127.572 47.1252 127.529 47.013C127.317 46.4517 127.043 46.2347 126.706 46.3619C126.426 46.4679 126.205 46.7757 126.045 47.2853C125.797 47.9881 125.596 48.898 125.441 50.015C125.275 51.1039 125.16 52.1575 125.096 53.176C125.031 54.1944 124.986 54.9652 124.959 55.4885L124.925 56.4155ZM141.972 60.4132C140.429 60.9964 138.956 61.0878 137.554 60.6875C136.141 60.2591 135.117 59.203 134.481 57.5192C133.993 56.2282 133.721 54.7437 133.664 53.0654C133.635 51.3766 133.787 49.6996 134.12 48.0344C134.471 46.3306 134.995 44.8335 135.694 43.5432C136.128 42.738 136.654 42.0099 137.274 41.3588C137.894 40.7076 138.578 40.2249 139.325 39.9106C140.584 39.3386 141.779 39.0635 142.909 39.0853C144.04 39.1071 144.823 39.6933 145.258 40.8439C145.364 41.1245 145.443 41.4632 145.497 41.8598C145.568 42.2178 145.585 42.6443 145.548 43.1395C145.5 43.8629 145.363 44.6042 145.137 45.3632C144.939 46.1115 144.728 46.6563 144.504 46.9975C144.28 47.3386 144.035 47.6236 143.769 47.8525C143.492 48.0533 143.227 48.2015 142.974 48.2969C142.694 48.4029 142.425 48.4563 142.169 48.4569C141.941 48.4469 141.735 48.4123 141.553 48.3531C141.695 47.6259 141.81 46.8286 141.899 45.9611C141.989 45.0936 142.057 44.2981 142.104 43.5747C142.141 42.8232 142.124 42.2684 142.053 41.9105C142.038 41.7876 142.015 41.6841 141.983 41.5999C141.98 41.5051 141.962 41.4156 141.93 41.3314C141.718 40.7701 141.402 40.569 140.981 40.7281C140.644 40.8553 140.369 41.2317 140.156 41.8572C139.752 42.9081 139.449 44.1448 139.249 45.5674C139.049 46.9899 138.923 48.4807 138.871 50.0399C138.868 50.4577 138.863 51.0371 138.854 51.778C138.873 52.5083 138.928 53.2894 139.018 54.1213C139.125 54.9146 139.306 55.648 139.56 56.3215C139.847 57.0793 140.259 57.6611 140.797 58.0671C141.353 58.4344 142.094 58.4431 143.02 58.0932C143.918 57.7538 144.65 57.1885 145.217 56.397C145.801 55.5669 146.277 54.6177 146.643 53.5494C146.998 52.453 147.267 51.341 147.451 50.2135C147.623 49.0578 147.761 47.9795 147.864 46.9786C147.874 46.7503 147.977 46.5991 148.174 46.5249C148.342 46.4612 148.528 46.4871 148.732 46.6025C148.936 46.7179 149.024 46.909 148.997 47.1759C148.901 48.1101 148.768 49.0743 148.599 50.0684C148.457 51.0519 148.268 52.0373 148.032 53.0245C147.643 54.7109 146.956 56.2049 145.973 57.5065C144.99 58.8081 143.656 59.777 141.972 60.4132ZM154.092 55.4491C153.082 55.8308 152.064 55.8947 151.038 55.641C150.001 55.3591 149.239 54.5727 148.751 53.2818C148.37 52.2715 148.1 50.9625 147.941 49.3547C147.783 47.747 147.74 46.0634 147.813 44.3041C147.875 42.5168 148.052 40.8625 148.343 39.3414L146.533 40.0253C146.364 40.089 146.254 40.0506 146.201 39.9103C146.158 39.798 146.181 39.6452 146.268 39.4519C146.345 39.2305 146.471 39.0546 146.646 38.9243C147.042 38.6143 147.522 38.1444 148.086 37.5145C148.667 36.8459 149.255 36.1106 149.85 35.3085C150.445 34.5065 150.997 33.7204 151.508 32.9501C152.019 32.1799 152.416 31.5329 152.699 31.009C152.867 30.689 153.075 30.434 153.324 30.2437C153.601 30.0429 153.879 29.8895 154.16 29.7834C154.637 29.6032 155.034 29.5495 155.35 29.6225C155.666 29.6954 155.73 29.8638 155.541 30.1276C155.369 30.3528 155.193 30.8202 155.012 31.5299C154.832 32.2396 154.658 33.0108 154.491 33.8434C154.353 34.6653 154.23 35.4013 154.123 36.0511L157.322 34.8423C157.378 34.8211 157.422 34.8526 157.454 34.9368C157.507 35.0771 157.52 35.2807 157.493 35.5477C157.454 35.7865 157.379 35.9272 157.267 35.9696L153.942 37.2261C153.751 38.4204 153.558 39.7762 153.362 41.2935C153.165 42.8109 153.008 44.3457 152.889 45.8979C152.787 47.4115 152.752 48.8038 152.783 50.0748C152.804 51.3178 152.936 52.262 153.18 52.9074C153.445 53.609 153.9 53.8379 154.546 53.594C155.219 53.3395 155.855 52.7305 156.453 51.7669C156.932 50.9125 157.316 49.9337 157.604 48.8304C157.886 47.7939 158.087 46.7558 158.208 45.7162C158.356 44.666 158.468 43.7738 158.543 43.0398C158.581 42.801 158.699 42.6444 158.895 42.5702C159.092 42.496 159.278 42.5218 159.454 42.6478C159.647 42.7351 159.73 42.9122 159.702 43.1791C159.6 44.1801 159.438 45.3638 159.216 46.7302C158.995 48.0966 158.694 49.3807 158.315 50.5825C158.001 51.5349 157.638 52.3135 157.225 52.9185C156.829 53.4847 156.36 53.9828 155.817 54.4125C155.313 54.8597 154.738 55.2052 154.092 55.4491Z" fill="#E72222"/>
</svg>
