<svg width="344" height="346" viewBox="0 0 344 346" fill="none" xmlns="http://www.w3.org/2000/svg">
<g filter="url(#filter0_d_375_5)">
<path d="M220.426 236.005C225.665 236.005 230.488 237.893 233.923 241.355L278.127 285.935C285.726 293.592 285.483 306.32 277.572 314.292L267.406 324.327L264.942 326.285C259.772 330.341 253.943 333.662 247.663 336.145C241.834 338.417 236.074 339.886 230.037 340.62C229.551 340.655 227.886 340.83 225.075 340.83C208.733 340.83 150.026 335.306 79.7988 264.536C20.5362 204.816 -1.32292 160.97 4.36739 113.243C5.06133 107.438 6.48391 101.634 8.77392 95.5503C11.2374 89.1517 14.5336 83.2776 18.5932 78.0678L19.5994 76.3894L30.4596 65.3755C34.2416 61.5293 39.5849 59.3615 45.1364 59.3615C50.4104 59.3615 55.1986 61.2845 58.6336 64.7461L102.872 109.292C110.471 116.949 110.193 129.676 102.282 137.683L78.3415 161.809L81.8459 168.138L81.9141 168.261C89.8188 182.621 100.607 202.218 121.192 222.928C141.705 243.634 161.145 254.507 175.331 262.441L175.389 262.473L181.843 266.075L205.749 241.984C209.531 238.173 214.874 236.005 220.426 236.005Z" fill="#FAFAFA"/>
</g>
<path d="M146.521 151.599L145.758 153.278L147.562 153.732C158.388 156.494 168.276 162.124 176.118 170.026C183.612 177.578 189.095 187.054 191.974 197.334L192.287 198.417L194.022 198.487C194.473 198.487 194.889 198.522 195.34 198.557C196.416 198.662 197.457 198.767 198.497 198.907C199.434 199.012 200.371 199.152 201.308 199.222L203.424 199.396L202.939 197.299C199.816 184.047 193.154 171.984 183.682 162.403C174.695 153.347 163.384 146.809 150.997 143.557L149.54 143.173L149.124 144.606C148.36 147.124 147.493 149.466 146.521 151.599Z" fill="#FAFAFA"/>
<path d="M150.65 108.382L150.789 109.501L151.899 109.746C173.064 113.697 192.148 123.732 207.102 138.802C224.277 156.11 234.756 178.208 237.427 202.718L237.566 203.872L240.897 204.362C241.973 204.431 243.014 204.431 244.089 204.431C244.887 204.396 245.685 204.431 246.449 204.466L248.184 204.536L248.01 202.788C245.338 175.236 233.784 150.515 214.631 131.18C197.491 113.907 175.597 102.648 151.309 98.5923L149.228 98.2426L149.54 100.341C149.991 103.033 150.373 105.725 150.65 108.382Z" fill="#FAFAFA"/>
<path d="M248.392 97.1936C219.94 68.5223 182.016 51.4594 141.629 49.1167L139.721 48.9769L140.033 50.865C140.449 53.4524 140.935 56.0748 141.456 58.7321L141.698 59.8859L142.878 59.9559C179.935 62.5083 214.736 78.4174 240.863 104.746C266.573 130.655 282.291 165.341 285.101 202.334L285.205 203.872L286.697 203.767C288.363 203.662 290.028 203.522 291.728 203.382L295.892 203.033L295.753 201.494C292.769 162.019 275.941 124.991 248.392 97.1936Z" fill="#FAFAFA"/>
<path d="M343.392 197.019C339.367 146.494 317.578 98.9769 282.117 63.2076C244.263 25.0608 193.848 2.9279 140.172 0.899932L138.68 0.830002L138.576 2.3335C138.471 4.04679 138.402 5.76007 138.333 7.47336L138.159 11.6342L139.686 11.7041C190.691 13.5922 238.572 34.6062 274.519 70.865C308.209 104.816 328.889 149.956 332.74 197.963L332.879 199.536L334.44 199.396C336.696 199.152 339.02 198.977 341.345 198.802L343.496 198.627L343.392 197.019Z" fill="#FAFAFA"/>
<defs>
<filter id="filter0_d_375_5" x="-0.50354" y="59.3615" width="288.173" height="289.469" filterUnits="userSpaceOnUse" color-interpolation-filters="sRGB">
<feFlood flood-opacity="0" result="BackgroundImageFix"/>
<feColorMatrix in="SourceAlpha" type="matrix" values="0 0 0 0 0 0 0 0 0 0 0 0 0 0 0 0 0 0 127 0" result="hardAlpha"/>
<feOffset dy="4"/>
<feGaussianBlur stdDeviation="2"/>
<feComposite in2="hardAlpha" operator="out"/>
<feColorMatrix type="matrix" values="0 0 0 0 0 0 0 0 0 0 0 0 0 0 0 0 0 0 0.25 0"/>
<feBlend mode="normal" in2="BackgroundImageFix" result="effect1_dropShadow_375_5"/>
<feBlend mode="normal" in="SourceGraphic" in2="effect1_dropShadow_375_5" result="shape"/>
</filter>
</defs>
</svg>
